PathFileType	4	(X/Y/Z)	C:/Users/beibeiliu/ov580/test_trc/User2\sequence.11_training_dense_right.trc
DataRate	CameraRate	NumFrames	NumMarkers	Units	OrigDataRate	OrigDataStartFrame	OrigNumFrames
120	120	12	19	mm	120	138	366
Frame#	Time	ThumbCMC			ThumbMCP			ThumbIP			ThumbTip			IndexMCP			IndexPIP			IndexTip			MiddleMCP			MiddlePIP			MiddleTip			RingMCP			RingPIP			RingTip			PinkyMCP			PinkyPIP			PinkyTip			BackHand1			BackHand2			BackHand3	
		X0	Y0	Z0	X1	Y1	Z1	X2	Y2	Z2	X3	Y3	Z3	X4	Y4	Z4	X5	Y5	Z5	X6	Y6	Z6	X7	Y7	Z7	X8	Y8	Z8	X9	Y9	Z9	X10	Y10	Z10	X11	Y11	Z11	X12	Y12	Z12	X13	Y13	Z13	X14	Y14	Z14	X15	Y15	Z15	X16	Y16	Z16	X17	Y17	Z17	X18	Y18	Z18	
137	1.14167	103.597	43.9697	77.4614	78.8691	57.4452	57.948	55.9968	71.6912	34.7099	38.7224	66.8856	17.888	118.195	24.0166	-7.43032	109.939	27.0521	-35.3196	92.0493	23.7267	-60.0525	124.256	-4.14825	-11.8938	116.611	-7.07602	-48.6169	97.4154	-13.6591	-72.7551	122.236	-28.6328	-4.9935	116.766	-33.0866	-34.5519	102.679	-35.6789	-61.8594	105.782	-50.0923	11.195	96.3422	-62.9673	-9.50162	84.6011	-75.319	-30.6925	130.813	-24.7964	49.7949	140.818	-17.8676	80.0374	134.455	15.9906	59.8242	
138	1.15	114.8	43.3677	73.1469	93.9384	59.4183	53.0363	74.9031	73.9031	26.2431	59.022	74.427	3.10117	139.458	21.3359	-7.69775	135.926	26.0864	-39.0388	121.139	22.1773	-63.4649	145.45	-5.90784	-12.5388	140.534	-9.43357	-48.846	126.188	-17.4822	-73.6021	136.603	-29.1222	-2.46885	135.889	-37.9341	-34.3229	125.718	-35.6985	-63.4511	118.899	-51.0719	9.41671	111.238	-62.5975	-13.8041	102.81	-73.6497	-36.6963	141.012	-23.5732	47.7131	145.481	-25.0444	80.9383	144.582	10.9578	64.2004	
139	1.15833	124.025	38.7865	71.2671	106.33	55.2383	46.5249	89.7399	73.753	20.7925	77.124	72.0345	-0.995192	155.056	23.4405	-6.71554	153.056	25.4023	-39.2393	140.896	23.9614	-63.1772	159.038	-7.77017	-10.6901	157.158	-13.0243	-47.8531	143.614	-19.2499	-75.4623	147.401	-29.2145	-3.37153	147.914	-39.0447	-31.5258	138.288	-40.3002	-64.9906	126.737	-54.392	9.26523	122.358	-62.791	-13.2885	115.127	-73.2209	-39.0364	147.089	-25.0698	48.2965	150.325	-26.6698	82.6935	153.723	7.05815	64.1016	
140	1.16667	128.99	38.5188	68.4487	109.899	59.2215	48.1554	94.0816	71.6187	23.0702	82.3975	72.0113	-3.00333	158.006	21.4859	-3.91479	157.318	20.9245	-39.3028	145.316	24.822	-65.8154	161.023	-8.71888	-8.31853	161.016	-13.1739	-46.9857	147.642	-21.5414	-76.2317	151.092	-35.8161	-3.86727	151.208	-39.2043	-32.9967	139.583	-44.1687	-64.6074	129.741	-52.4273	13.2309	126.226	-63.6223	-11.6647	119.161	-73.8748	-40.9535	147.468	-30.2665	51.9814	151.216	-27.3582	81.1795	157.711	9.42705	63.7727	
141	1.175	126.329	41.5977	73.5912	105.176	54.4552	47.9329	87.9897	70.6252	22.6248	73.304	67.1294	2.08303	151.616	23.0272	-7.88046	148.47	20.0968	-36.9851	133.776	20.2146	-63.925	151.908	-12.1662	-9.55173	149.003	-13.0607	-45.995	134.651	-21.1992	-74.4617	144.886	-31.6886	-6.22287	140.257	-42.1241	-33.7988	130.082	-42.1924	-59.5745	126.488	-55.7466	16.9819	120.364	-67.9251	-11.7065	111.793	-77.562	-32.1997	148.803	-25.4517	49.5179	153.939	-28.7517	84.3413	155.767	5.44036	63.1037	
142	1.18333	119.572	41.0172	70.8375	95.6604	55.8408	54.7706	73.7435	65.5968	28.9618	56.6159	62.5925	12.476	134.096	18.5325	-7.08394	127.017	20.6584	-35.8695	111.562	18.6281	-61.6229	135.858	-12.6214	-12.4309	126.432	-19.6718	-42.3083	105.843	-26.336	-73.5248	130.613	-35.6992	-5.82693	124.07	-40.5992	-28.2908	106.269	-47.3634	-58.6034	119.235	-56.7074	18.8207	111.578	-67.6799	-4.53469	100.65	-82.9676	-26.139	142.513	-25.1589	53.9353	153.455	-28.08	79.7753	151.57	10.6554	60.5752	
143	1.19167	111.409	38.2439	72.4892	84.8102	52.7971	61.3644	57.0725	62.5264	37.795	38.1024	58.583	19.4077	115.239	18.8539	-3.77546	102.812	18.4274	-36.485	84.6512	10.6304	-57.7088	119.018	-12.9728	-9.10774	105.774	-21.8215	-39.8294	83.245	-29.2248	-67.4245	117.152	-34.8379	1.52723	104.681	-47.7077	-28.4577	88.634	-50.8682	-50.5547	111.072	-56.7835	25.0644	100.325	-71.4475	2.37163	88.6298	-80.1476	-22.2119	137.234	-23.3832	48.05	149.968	-20.8259	83.4046	140.174	11.1232	59.345	
144	1.2	106.314	39.4056	80.1856	74.9103	52.7932	66.7367	47.3211	57.6195	47.4765	25.2069	56.3602	33.0113	102.729	19.1746	-5.34069	88.3889	13.9651	-33.4378	67.853	12.5536	-51.5665	108.385	-8.21186	-6.96329	92.8572	-19.636	-39.1859	72.5533	-28.4735	-62.0422	109.202	-34.5526	-0.446574	98.4752	-45.046	-21.9027	78.5432	-53.1523	-48.5945	106.611	-58.1933	24.8164	93.2236	-71.5544	-0.439732	81.966	-79.4652	-16.2185	129.818	-22.619	48.6434	148.634	-17.155	81.7638	136.038	13.7442	57.1695	
145	1.20833	104.277	40.2409	80.4095	73.4512	52.1529	66.883	44.1622	60.2436	51.761	23.1008	56.7039	35.8511	100.006	18.7707	-4.15043	86.5685	18.2658	-29.8025	61.9875	13.6032	-49.1944	109.075	-6.92193	-6.59758	94.1067	-15.2562	-38.3935	71.7393	-26.7942	-61.2208	109.982	-29.8731	0.00500336	98.5224	-39.9187	-26.3615	78.9657	-48.7792	-48.5698	105.448	-53.1919	23.4924	93.2064	-67.2868	1.70615	79.9911	-81.8806	-16.3577	131.711	-23.556	52.007	147.409	-16.9744	79.7899	135.384	13.311	59.4759	
146	1.21667	109.672	43.1029	76.2244	83.4418	55.6289	66.805	54.9653	66.7046	45.5212	34.6707	64.3634	32.4609	108.674	25.4651	-6.67382	95.5136	24.6732	-29.8371	68.5918	15.1692	-50.9674	115.247	-4.36647	-7.85843	101.309	-12.3978	-41.0119	76.1375	-21.3008	-65.9939	114.556	-28.2268	1.52157	104.084	-36.495	-27.8175	86.8915	-41.6486	-50.9035	106.255	-53.272	19.3057	92.8946	-64.6443	-2.72939	78.0421	-72.7668	-22.633	134.586	-18.8176	47.9248	146.913	-19.0144	79.4394	139.016	14.8555	62.4211	
147	1.225	122.42	47.0663	74.6704	98.8177	62.3218	61.5056	75.9139	75.7403	39.2733	56.8193	76.0156	21.4183	123.003	21.4621	-5.17172	110.863	21.9636	-34.3712	84.2551	20.6861	-54.4304	125.981	-8.28224	-10.7025	112.505	-10.8858	-45.2709	88.1851	-12.8859	-69.4369	119.982	-26.5019	-0.162041	111.538	-35.1756	-27.0032	94.3915	-37.7128	-53.4142	106.744	-45.9499	21.3616	93.3709	-60.6416	-0.527294	80.92	-70.3518	-21.0914	137.513	-20.8829	51.6249	147.883	-19.7831	79.2254	147.041	11.0775	63.1043	
148	1.23333	138.24	44.9351	72.3792	119.938	67.9495	53.4427	102.495	84.8828	27.6069	85.0314	88.7199	10.7257	139.188	18.0118	-8.80805	125.673	17.3464	-38.6338	103.176	23.1615	-59.4104	134.403	-10.7519	-10.5851	123.703	-16.7211	-40.9944	98.2541	-16.0705	-69.4063	123.445	-29.0106	-1.13284	114.175	-38.5907	-25.5971	98.0291	-35.7136	-52.9599	104.1	-46.9288	20.0657	87.9537	-59.056	-1.17444	73.2641	-62.296	-23.8498	135.833	-25.1646	51.8204	148.281	-23.795	83.6077	156.177	4.47534	62.986	
